<?xml version="1.0" encoding="UTF-8" standalone="no"?>
<!-- Created with Inkscape (http://www.inkscape.org/) -->

<svg
   width="38.445774mm"
   height="53.462227mm"
   viewBox="0 0 38.445774 53.462227"
   version="1.1"
   id="svg1"
   xmlns="http://www.w3.org/2000/svg"
   xmlns:svg="http://www.w3.org/2000/svg">
  <defs
     id="defs1" />
  <g
     id="layer1"
     transform="translate(-125.21697,-104.01539)">
    <path
       style="fill:#1a1a1a;stroke-width:0.241669"
       id="path24"
       d="m 144.81591,116.24163 c -1.46294,0.34611 -2.90293,0.74482 -4.30339,1.25315 -1.16065,0.51596 -2.30291,1.08287 -3.39359,1.7068 -0.56608,0.26258 -0.9818,0.68654 -1.44143,1.06228 -0.4066,0.42343 -0.95924,0.70205 -1.42347,1.0716 -0.49853,0.38778 -0.98055,0.79362 -1.4666,1.1943 -0.53534,0.43635 -1.05371,0.89049 -1.48829,1.4066 -0.45221,0.57394 -0.94284,1.12067 -1.43943,1.66526 -0.68383,0.76343 -1.3214,1.55386 -1.95679,2.34855 -0.72281,0.87478 -1.26344,1.85127 -1.79498,2.822 -0.3781,0.77121 -0.66221,1.57538 -0.8122,2.40426 -0.12024,0.73857 -0.1135,1.46398 0.0949,2.18644 0.22793,0.78124 0.45991,1.56085 0.7539,2.32522 0.27649,0.7297 0.62129,1.43392 1.0562,2.10114 0.55231,0.77086 1.11049,1.53379 1.79333,2.22123 1.775,1.69847 4.23948,2.65425 6.48084,3.77747 1.42109,0.60802 2.94081,1.02784 4.48924,1.29868 1.84179,0.29187 3.7181,0.28876 5.58314,0.31743 1.50913,-0.004 3.02847,0.09 4.53153,-0.0761 0.41746,-0.0461 1.01338,-0.16151 1.43279,-0.23798 1.45402,-0.48013 2.86539,-1.0622 4.266,-1.6522 1.17738,-0.44265 2.24321,-1.05462 3.30875,-1.66799 1.10516,-0.74525 2.04604,-1.66031 2.87665,-2.63707 0.8869,-1.13183 1.36505,-2.27448 1.60706,-3.62032 0.19884,-1.27158 0.0504,-2.54951 -0.18755,-3.80741 -0.27797,-1.38883 -0.9616,-2.67273 -1.55224,-3.97345 -0.43415,-1.0339 -1.01594,-2.00444 -1.77656,-2.88001 -0.75158,-0.8647 -1.58168,-1.67311 -2.38784,-2.49842 -0.90608,-1.0267 -2.00969,-1.88545 -3.13653,-2.71853 -1.07575,-0.84438 -2.27033,-1.55024 -3.5001,-2.20741 -1.78003,-0.89319 -3.53579,-1.97058 -5.51722,-2.53056 -0.28274,-0.0767 -0.57527,-0.10607 -0.86809,-0.13263 0,0 3.09336,2.0285 3.09336,2.0285 v 0 c 0.2771,0.0445 0.55305,0.0931 0.81735,0.18171 1.37771,0.45569 4.41828,1.91812 -1.08674,-0.75234 1.23432,0.64925 2.46132,1.31457 3.53426,2.16405 1.12477,0.82146 2.25974,1.64576 3.15864,2.66828 0.80572,0.81284 1.60821,1.62967 2.36997,2.47465 0.11359,0.12347 0.56089,0.60477 0.65941,0.73199 0.49508,0.63933 0.84893,1.36352 1.18868,2.07196 0.58883,1.28277 1.27534,2.54677 1.58624,3.91026 0.25082,1.2235 0.40149,2.46715 0.23461,3.70881 -0.21021,1.30253 -0.64787,2.38637 -1.50513,3.48059 -0.81772,0.94326 -1.73488,1.83075 -2.83983,2.52287 -1.04101,0.60877 -2.08401,1.21449 -3.23746,1.65377 -1.38236,0.57959 -2.78378,1.14347 -4.23709,1.57145 -0.45858,0.0825 -0.91565,0.17285 -1.38141,0.22115 -1.48402,0.15392 -2.98248,0.0726 -4.47184,0.0704 -1.87275,-0.0433 -3.75415,-0.0832 -5.59802,-0.40401 -1.52465,-0.29889 -3.02342,-0.72814 -4.40955,-1.3672 4.99124,2.56742 2.2946,1.25944 1.28106,0.60254 -0.45484,-0.29479 -0.87645,-0.6315 -1.26672,-0.98964 -0.70523,-0.65951 -1.27899,-1.39068 -1.82341,-2.15698 -0.44195,-0.65002 -0.81646,-1.32699 -1.09374,-2.04583 -0.31277,-0.74893 -0.53117,-1.52189 -0.74943,-2.29529 -0.008,-0.0236 -0.1862,-0.56954 -0.19288,-0.60105 -0.1023,-0.48218 -0.007,-0.98091 0.0211,-1.46448 0.12629,-0.79999 0.38806,-1.57725 0.74324,-2.32249 0.52213,-0.95413 1.03445,-1.9228 1.74891,-2.78096 0.6368,-0.78774 1.29126,-1.56007 1.97635,-2.31597 0.49486,-0.5494 0.98941,-1.09778 1.44858,-1.67084 0.43152,-0.4927 0.92842,-0.93822 1.44944,-1.35862 0.48697,-0.397 0.97828,-0.79021 1.46832,-1.18383 0.47596,-0.3642 1.02607,-0.65308 1.43981,-1.07804 0.42943,-0.3731 0.85021,-0.75454 1.38195,-1.02062 1.06438,-0.61323 2.16106,-1.1992 3.3138,-1.67499 1.4043,-0.49001 2.84569,-0.88512 4.31807,-1.18737 z" />
    <path
       style="fill:#1a1a1a;stroke-width:0.241669"
       id="path25"
       d="m 148.0378,104.01537 c -1.54214,1.08407 -2.99043,2.24791 -4.23071,3.5989 -1.13085,1.34756 -1.39876,2.99521 -1.72854,4.59762 -0.31773,1.77646 -0.51292,3.5683 -0.63339,5.36278 -0.0709,1.65092 -0.21624,3.29784 -0.27943,4.94904 -0.0371,1.83464 -0.0204,3.66825 -0.10966,5.50178 -0.12212,2.08836 -0.14099,4.17931 -0.14717,6.26988 0.01,2.20453 -0.0585,4.40968 0.0135,6.61355 0.20073,2.29154 0.43653,4.58586 1.05757,6.82271 0.55622,1.60118 1.21369,3.17316 1.82508,4.75841 0.29554,0.83612 0.65317,1.65418 1.01056,2.47121 0.17392,0.35947 0.3357,0.72277 0.48825,1.08952 0,0 3.48471,1.42682 3.48471,1.42682 v 0 c -0.14709,-0.37214 -0.30308,-0.74105 -0.48823,-1.10032 -0.36748,-0.81859 -0.72531,-1.64133 -1.05062,-2.47328 -0.63278,-1.57973 -1.28963,-3.15219 -1.8709,-4.74744 -0.67492,-2.20883 -0.95436,-4.48334 -1.10756,-6.76285 -0.0708,-2.20396 -0.043,-4.40963 -0.0441,-6.61426 0.0258,-2.08161 0.0623,-4.16345 0.17855,-6.24299 0.0842,-1.83187 0.0857,-3.66366 0.12816,-5.49646 0.0623,-1.65042 0.19044,-3.2976 0.26348,-4.94751 0.11146,-1.78208 0.30102,-3.56136 0.6141,-5.32547 0.32529,-1.54532 0.56607,-3.14323 1.63861,-4.45413 1.21138,-1.333 2.62759,-2.4946 4.22221,-3.47418 z" />
  </g>
</svg>
